<svg width="599.402" height="98.102" viewBox="0 0 599.402 98.102" xmlns="http://www.w3.org/2000/svg"><g id="svgGroup" stroke-linecap="round" fill-rule="evenodd" font-size="9pt" stroke="#000000" stroke-width="0.25mm" fill="#63fffc" style="stroke:#000000;stroke-width:0.25mm;fill:#63fffc"><path d="M 326.002 2.002 L 268.102 2.002 L 268.102 34.602 L 279.002 10.302 L 288.502 10.302 L 288.502 75.102 L 279.602 82.002 L 314.502 82.002 L 305.702 75.102 L 305.702 10.302 L 315.102 10.302 L 326.002 34.602 L 326.002 2.002 Z M 157.602 28.902 L 166.902 44.402 L 166.902 21.702 L 123.802 21.702 L 130.902 27.902 L 130.902 75.802 L 123.802 82.002 L 166.902 82.002 L 166.902 54.802 L 158.302 74.802 L 145.802 74.802 L 145.802 54.802 L 151.702 54.802 L 157.802 62.502 L 157.802 40.002 L 151.702 47.802 L 145.802 47.802 L 145.802 28.902 L 157.602 28.902 Z M 65.902 21.702 L 73.002 27.902 L 73.002 62.902 A 24.494 24.494 0 0 0 74.584 72.016 C 77.495 79.303 84.407 83.402 95.202 83.402 A 26.184 26.184 0 0 0 103.371 82.215 C 109.872 80.085 113.741 75.185 115.024 68.35 A 29.548 29.548 0 0 0 115.502 62.902 L 115.502 27.902 L 122.602 21.702 L 99.502 21.702 L 106.602 27.902 L 106.602 64.002 C 106.602 71.502 102.702 76.302 96.702 76.302 A 9.03 9.03 0 0 1 88.114 71.122 C 87.512 69.904 87.075 68.465 86.83 66.801 A 22.685 22.685 0 0 1 86.602 63.502 L 86.602 27.902 L 93.702 21.702 L 65.902 21.702 Z M 210.402 41.802 L 210.402 20.102 L 205.702 23.502 A 18.775 18.775 0 0 0 198.726 20.666 A 24.718 24.718 0 0 0 193.902 20.202 C 183.82 20.202 176.178 25.43 175.207 34.831 A 20.143 20.143 0 0 0 175.102 36.902 A 18.299 18.299 0 0 0 176.134 43.177 C 178.336 49.272 183.735 52.622 189.134 55.5 A 157.222 157.222 0 0 0 189.702 55.802 A 188.014 188.014 0 0 1 192.203 57.146 C 195.841 59.146 198.942 61.139 200.603 63.691 A 7.717 7.717 0 0 1 201.902 68.002 A 8.102 8.102 0 0 1 200.392 72.801 A 9.342 9.342 0 0 1 192.802 76.502 C 186.402 76.502 180.902 71.002 174.302 56.902 L 174.402 83.502 L 179.502 79.502 C 183.364 81.977 187.422 83.472 193.23 83.501 A 34.562 34.562 0 0 0 193.402 83.502 C 204.302 83.502 213.802 76.302 213.802 65.402 C 213.802 56.09 209.163 51.16 203.349 47.508 A 62.642 62.642 0 0 0 198.902 45.002 A 386.306 386.306 0 0 1 197.117 44.105 C 191.226 41.121 186.102 38.138 186.102 33.502 A 6.195 6.195 0 0 1 186.883 30.33 C 187.916 28.559 189.952 27.5 192.847 27.194 A 17.705 17.705 0 0 1 194.702 27.102 A 14.358 14.358 0 0 1 195.395 27.118 C 200.62 27.371 205.844 30.53 209.356 38.968 A 38.743 38.743 0 0 1 210.402 41.802 Z M 471.702 79.902 L 477.402 83.602 L 477.402 55.102 A 56.223 56.223 0 0 1 472.109 66.333 C 468.618 71.891 464.394 75.781 459.937 76.558 A 9.494 9.494 0 0 1 458.302 76.702 A 8.332 8.332 0 0 1 451.287 72.65 C 448.495 68.594 446.902 61.527 446.902 51.602 C 446.902 42.127 448.568 35.112 451.48 31.117 A 8.291 8.291 0 0 1 458.302 27.302 C 466.002 27.302 472.702 37.502 477.402 46.402 L 477.402 20.202 L 471.702 24.002 C 471.702 24.002 467.439 20.387 457.662 20.117 A 42.114 42.114 0 0 0 456.502 20.102 A 22.249 22.249 0 0 0 443.469 23.974 C 436.139 29.106 432.224 38.929 432.012 50.963 A 58.909 58.909 0 0 0 432.002 52.002 C 432.002 70.302 440.502 83.602 456.402 83.602 C 466.102 83.602 471.702 79.902 471.702 79.902 Z M 364.702 82.002 L 384.302 82.002 L 376.702 75.802 L 363.002 53.702 A 70.088 70.088 0 0 0 364.09 53.464 C 371.346 51.816 378.602 48.764 378.602 38.002 C 378.602 27.983 369.993 22.033 353.325 21.715 A 74.71 74.71 0 0 0 351.902 21.702 L 326.702 21.702 L 333.702 27.902 L 333.702 75.802 L 326.702 82.002 L 355.902 82.002 L 348.702 75.802 L 348.702 55.602 L 364.702 82.002 Z M 579.802 82.002 L 599.402 82.002 L 591.802 75.802 L 578.102 53.702 A 70.088 70.088 0 0 0 579.19 53.464 C 586.446 51.816 593.702 48.764 593.702 38.002 C 593.702 27.983 585.093 22.033 568.425 21.715 A 74.71 74.71 0 0 0 567.002 21.702 L 541.802 21.702 L 548.802 27.902 L 548.802 75.802 L 541.802 82.002 L 571.002 82.002 L 563.802 75.802 L 563.802 55.602 L 579.802 82.002 Z M 255.102 27.902 L 263.102 46.302 L 263.102 21.702 L 217.502 21.702 L 217.502 46.302 L 225.402 27.902 L 232.702 27.902 L 232.702 75.802 L 225.802 82.002 L 254.802 82.002 L 247.702 75.802 L 247.702 27.902 L 255.102 27.902 Z M 28.702 84.002 L 32.402 98.102 L 57.102 98.102 L 42.802 82.202 A 31.556 31.556 0 0 0 59.129 66.936 C 62.708 60.13 64.702 51.644 64.702 42.102 C 64.702 17.602 51.802 0.002 32.402 0.002 C 13.102 0.002 0.002 17.602 0.002 42.102 A 57.466 57.466 0 0 0 2.966 60.853 C 5.253 67.468 8.79 72.99 13.309 77.002 A 28.055 28.055 0 0 0 28.702 84.002 Z M 407.602 82.002 L 434.502 82.002 L 427.702 75.802 L 414.202 21.702 L 392.602 21.702 L 399.702 27.902 L 385.602 75.802 L 378.102 82.002 L 400.802 82.002 L 394.202 76.802 L 397.802 63.402 L 409.702 63.402 L 412.702 77.002 L 407.602 82.002 Z M 518.602 47.602 L 534.602 75.802 L 541.902 82.002 L 515.602 82.002 L 519.902 76.702 L 505.502 51.902 L 522.202 27.102 L 517.602 21.802 L 540.602 21.802 L 531.802 27.902 L 518.602 47.602 Z M 505.602 27.902 L 512.802 21.702 L 483.602 21.702 L 490.702 27.902 L 490.702 75.802 L 483.602 82.002 L 512.802 82.002 L 505.602 75.802 L 505.602 27.902 Z M 19.159 31.881 A 128.528 128.528 0 0 0 18.802 41.902 C 18.802 55.177 20.353 64.054 23.347 69.28 A 10.484 10.484 0 0 0 32.902 75.202 C 42.002 75.202 46.902 65.502 46.902 41.902 C 46.902 28.591 45.33 19.708 42.314 14.507 A 10.373 10.373 0 0 0 32.902 8.702 C 25.14 8.702 20.439 15.607 19.159 31.881 Z M 349.802 47.602 L 348.702 47.602 L 348.702 27.902 L 349.802 27.902 C 360.079 27.902 363.837 31.252 364.177 37.262 A 16.63 16.63 0 0 1 364.202 38.202 A 9.905 9.905 0 0 1 363.214 42.939 C 361.759 45.651 358.492 47.253 352.096 47.551 A 49.387 49.387 0 0 1 349.802 47.602 Z M 564.902 47.602 L 563.802 47.602 L 563.802 27.902 L 564.902 27.902 C 575.179 27.902 578.937 31.252 579.277 37.262 A 16.63 16.63 0 0 1 579.302 38.202 A 9.905 9.905 0 0 1 578.314 42.939 C 576.859 45.651 573.592 47.253 567.196 47.551 A 49.387 49.387 0 0 1 564.902 47.602 Z M 12.302 30.802 L 9.802 33.902 L 8.202 30.302 A 36.584 36.584 0 0 1 13.802 16.068 A 21.483 21.483 0 0 1 19.502 10.402 A 28.766 28.766 0 0 0 14.456 20.361 A 64.46 64.46 0 0 0 12.302 30.802 Z M 8.202 54.002 L 9.802 50.402 L 12.302 53.602 A 43.404 43.404 0 0 0 13.651 63.173 A 27.817 27.817 0 0 0 19.002 73.902 A 25.204 25.204 0 0 1 9.692 60.92 A 31.918 31.918 0 0 1 8.202 54.002 Z M 297.102 75.202 L 294.402 54.002 L 297.102 50.102 L 299.702 54.002 L 297.102 75.202 Z M 297.102 8.702 L 299.702 29.702 L 297.102 33.602 L 294.402 29.702 L 297.102 8.702 Z M 399.702 56.202 L 404.202 39.202 L 408.102 56.202 L 399.702 56.202 Z M 297.102 45.502 L 294.302 41.902 L 297.102 38.202 L 300.002 41.902 L 297.102 45.502 Z M 9.502 38.602 L 12.102 42.202 L 9.502 45.702 L 6.902 42.202 L 9.502 38.602 Z" vector-effect="non-scaling-stroke"/></g></svg>