<svg width="196.5" height="98.102" viewBox="0 0 196.5 98.102" xmlns="http://www.w3.org/2000/svg"><g id="svgGroup" stroke-linecap="round" fill-rule="evenodd" font-size="9pt" stroke="#50007500" stroke-width="0.3mm" fill="#29fffb" style="stroke:#50007500;stroke-width:0.3mm;fill:#29fffb"><path d="M 160.8 2.002 L 102.9 2.002 L 102.9 34.602 L 113.8 10.302 L 123.3 10.302 L 123.3 75.102 L 114.4 82.002 L 149.3 82.002 L 140.5 75.102 L 140.5 10.302 L 149.9 10.302 L 160.8 34.602 L 160.8 2.002 Z M 63.2 84.002 L 66.9 98.102 L 91.6 98.102 L 77.3 82.202 A 31.556 31.556 0 0 0 93.626 66.936 C 97.206 60.13 99.2 51.644 99.2 42.102 C 99.2 17.602 86.3 0.002 66.9 0.002 C 47.6 0.002 34.5 17.602 34.5 42.102 A 57.466 57.466 0 0 0 37.463 60.853 C 39.751 67.468 43.287 72.99 47.807 77.002 A 28.055 28.055 0 0 0 63.2 84.002 Z M 53.657 31.881 A 128.528 128.528 0 0 0 53.3 41.902 C 53.3 55.177 54.85 64.054 57.844 69.28 A 10.484 10.484 0 0 0 67.4 75.202 C 76.5 75.202 81.4 65.502 81.4 41.902 C 81.4 28.591 79.828 19.708 76.811 14.507 A 10.373 10.373 0 0 0 67.4 8.702 C 59.638 8.702 54.936 15.607 53.657 31.881 Z M 25.8 55.702 L 0 55.702 L 0 48.102 L 25.8 48.102 L 25.8 55.702 Z M 196.5 55.702 L 170.7 55.702 L 170.7 48.102 L 196.5 48.102 L 196.5 55.702 Z M 46.8 30.802 L 44.3 33.902 L 42.7 30.302 A 36.584 36.584 0 0 1 48.3 16.068 A 21.483 21.483 0 0 1 54 10.402 A 28.766 28.766 0 0 0 48.954 20.361 A 64.46 64.46 0 0 0 46.8 30.802 Z M 42.7 54.002 L 44.3 50.402 L 46.8 53.602 A 43.404 43.404 0 0 0 48.149 63.173 A 27.817 27.817 0 0 0 53.5 73.902 A 25.204 25.204 0 0 1 44.19 60.92 A 31.918 31.918 0 0 1 42.7 54.002 Z M 131.9 75.202 L 129.2 54.002 L 131.9 50.102 L 134.5 54.002 L 131.9 75.202 Z M 131.9 8.702 L 134.5 29.702 L 131.9 33.602 L 129.2 29.702 L 131.9 8.702 Z M 131.9 45.502 L 129.1 41.902 L 131.9 38.202 L 134.8 41.902 L 131.9 45.502 Z M 44 38.602 L 46.6 42.202 L 44 45.702 L 41.4 42.202 L 44 38.602 Z" vector-effect="non-scaling-stroke"/></g></svg>